<?xml version="1.0" standalone="no"?>
<!DOCTYPE svg PUBLIC "-//W3C//DTD SVG 20010904//EN"
 "http://www.w3.org/TR/2001/REC-SVG-20010904/DTD/svg10.dtd">
<svg version="1.0" xmlns="http://www.w3.org/2000/svg"
 width="542.000000pt" height="542.000000pt" viewBox="0 0 542.000000 542.000000"
 preserveAspectRatio="xMidYMid meet">
<metadata>
Created by potrace 1.11, written by Peter Selinger 2001-2013
</metadata>
<g transform="translate(0.000000,542.000000) scale(0.100000,-0.100000)"
fill="#000000" stroke="none">
<path d="M3930 4563 c-252 -34 -467 -134 -627 -292 -174 -172 -253 -357 -259
-611 -4 -153 15 -264 63 -373 84 -193 252 -366 479 -494 63 -36 92 -50 209
-104 22 -10 103 -43 181 -73 384 -148 587 -298 692 -511 117 -235 94 -579 -52
-790 -32 -46 -136 -147 -188 -182 -215 -144 -527 -191 -862 -128 -152 29 -342
104 -484 190 l-42 26 -29 -63 c-16 -35 -38 -85 -49 -111 l-21 -48 55 -35 c102
-65 253 -123 428 -165 263 -61 551 -63 796 -3 80 20 210 69 270 102 154 85
294 216 374 350 45 75 108 235 120 307 44 243 16 482 -79 671 -129 257 -359
428 -854 634 -368 154 -541 270 -650 439 -111 172 -131 439 -48 636 141 338
546 490 1035 389 124 -25 293 -92 350 -137 7 -5 14 -8 17 -6 2 3 26 53 54 111
54 117 55 111 -18 148 -113 57 -307 109 -464 125 -118 13 -298 12 -397 -2z"/>
<path d="M599 4496 c-1 -27 -1 -3669 0 -3678 1 -5 433 -8 961 -8 l960 0 0 110
0 110 -27 1 c-16 0 -389 0 -830 0 l-803 0 0 810 0 809 740 0 c698 0 740 1 741
18 3 81 0 194 -5 200 -4 4 -337 7 -739 7 l-732 0 0 710 0 710 783 0 782 0 0
111 0 111 -915 0 -915 0 -1 -21z"/>
</g>
</svg>
